<svg xmlns="http://www.w3.org/2000/svg" width="483.125" height="484.312" viewBox="0 0 483.125 484.312">
  <defs>
    <style>
      .cls-1 {
        fill-rule: evenodd;
      }
    </style>
  </defs>
  <path id="Vector_shape" data-name="Vector shape" class="cls-1" d="M230,61V75h52c32.128,10.292,70.292,57.417,84,88,12.5,27.881,13.654,73.284-9,90-17.084,12.606-173.179,18.442-201,7-12.75-5.244-26.007-17.127-30-31-19.123-66.434,45.223-106.9,63-143V85c-27.646.929-31.559,24.875-55,21-6.031-4.33-8.228-11.3-6-21,8.745-12.4,22.081-26.11,39-30,17-3.91,30.024-1.867,41-10l-2-2c-4.437-9.821-15.7-16.886-9-29,19.081-3.67,97.024-4.626,109,3-0.229,15.428-15.99,35.754-25,44H230Zm-1,102v15h19c0.728,10.951,4.162,15.695,9,22v1H216v18h70V208c-11.425-5.137-19.5-13.916-17-30h15V163H271v-1c10.239-33.079-20.127-48.545-49-41q-0.5,1-1,2,1.5,7.5,3,15c8.034-1.364,14.307-1.862,22,0l4,6v19H229ZM29,157c44.967,0.435,30,68.206,30,111v24c3.22,9.518,69.036,83.93,78,85,8.26-3.856,13.149-10.768,19-17-1.165-22.6-60.674-63.2-24-85,26.054-15.485,41.8,19.446,51,32,33.558,45.783,44,50.135,44,132,0,17.207,2.448,40.966-4,52-20.959,6.472-90.486,5.374-114,1-21.129-30.6-40.106-59.015-62-88-10.993-14.554-30.709-30.107-36-49l-1-90C10,220.828.388,175,29,157Zm432,0c13.435-.007,22.3,3.594,27,12,6.611,11.823,2,99.372,2,121v64c-5.22,22.084-52.145,70.113-67,90-6.02,8.059-26.564,44.772-33,48-13.326,5.421-105.915,2.172-114-3-3.829-13.522-2-35.2-2-52,0-79.683,10.234-84.466,43-129,9.876-13.423,28.615-51.4,55-31,33.361,25.793-32.758,61.525-26,83l16,17h6c7.318-3.989,71.3-77.7,74-85V265c0-21.743-5.777-81.019,2-96C447.407,162.436,454.535,160.675,461,157Z" transform="translate(-8.438 -11.25)"/>
</svg>
