<?xml version="1.0" standalone="no"?>
<!DOCTYPE svg PUBLIC "-//W3C//DTD SVG 20010904//EN"
 "http://www.w3.org/TR/2001/REC-SVG-20010904/DTD/svg10.dtd">
<svg version="1.0" xmlns="http://www.w3.org/2000/svg"
 width="470.000000pt" height="470.000000pt" viewBox="0 0 470.000000 470.000000"
 preserveAspectRatio="xMidYMid meet">
<metadata>
Created by potrace 1.14, written by Peter Selinger 2001-2017
</metadata>
<g transform="translate(0.000000,470.000000) scale(0.100000,-0.100000)"
fill="#000000" stroke="none">
<path d="M2129 4689 c-31 -4 -127 -24 -215 -44 -236 -54 -339 -98 -549 -237
-174 -115 -314 -257 -445 -452 -160 -240 -242 -438 -297 -721 -28 -138 -28
-146 -28 -518 0 -209 3 -384 7 -390 19 -31 -28 -51 -53 -21 -10 13 -24 14 -68
9 -72 -9 -77 -12 -101 -49 -72 -118 -36 -418 85 -699 72 -168 79 -183 113
-221 29 -33 37 -37 80 -37 26 0 60 2 75 3 27 3 30 -1 66 -97 61 -165 226 -461
318 -573 113 -136 247 -263 350 -333 130 -88 342 -186 531 -245 l147 -47 191
-5 c245 -6 310 4 532 76 169 55 191 66 319 147 254 161 462 371 609 615 59 99
79 146 144 338 l75 222 38 0 c49 0 95 22 134 63 52 54 152 383 174 570 21 180
-3 319 -67 383 -45 44 -85 45 -142 4 l-42 -30 -5 23 c-25 109 -35 201 -35 337
0 145 -12 282 -41 495 -22 157 -173 529 -279 685 -120 177 -334 388 -526 518
-142 97 -471 208 -686 231 -111 13 -326 13 -409 0z m1357 -2017 c32 -21 74
-55 92 -76 37 -42 82 -127 82 -153 0 -30 -98 -121 -165 -153 -79 -38 -96 -38
-62 -2 90 94 86 284 -7 385 -46 50 -19 50 60 -1z m-2111 -45 c-61 -64 -79
-108 -78 -197 0 -87 25 -151 81 -207 19 -19 32 -37 29 -40 -7 -6 -119 17 -133
28 -6 5 -14 6 -17 2 -4 -3 -7 -2 -7 3 0 6 -15 16 -34 22 -53 19 -138 103 -138
135 0 45 77 163 140 213 57 44 138 82 178 83 18 1 15 -5 -21 -42z m1579 -32
c-23 -50 -26 -66 -21 -124 7 -85 28 -132 84 -192 l46 -49 -29 0 c-43 0 -101
18 -181 57 -55 26 -74 40 -79 60 -12 47 31 149 93 224 28 33 103 92 110 86 2
-2 -9 -30 -23 -62z m184 42 c6 -6 13 -24 17 -37 8 -31 -27 -80 -56 -80 -25 0
-69 43 -69 68 0 46 80 83 108 49z m-1625 -55 c10 -9 17 -29 17 -48 0 -64 -80
-84 -115 -30 -23 34 -10 75 29 91 32 14 39 12 69 -13z m432 -146 c52 -107 42
-138 -64 -195 -90 -48 -130 -50 -80 -5 67 61 92 203 55 309 -14 37 64 -57 89
-109z m1468 -137 c-20 -33 -68 -59 -111 -59 -54 0 -46 26 26 78 66 48 67 49
84 29 17 -18 17 -21 1 -48z m-1624 -3 c29 -34 -47 -106 -112 -106 -43 0 -55
14 -30 34 58 48 109 85 119 85 6 1 17 -5 23 -13z m1061 -962 c19 -4 42 -9 50
-11 8 -2 20 -5 25 -5 6 -1 20 -14 33 -29 l22 -27 -28 -20 c-15 -11 -46 -23
-67 -26 -67 -10 -424 -25 -717 -32 -252 -5 -280 -4 -314 12 -21 10 -32 20 -26
22 7 2 12 10 12 17 0 20 85 55 169 70 42 7 213 19 381 25 167 6 306 12 307 14
5 4 116 -3 153 -10z m-294 -231 c-12 -12 -38 -15 -208 -20 -92 -3 -176 -1
-185 3 -16 8 56 13 336 22 35 1 61 -1 57 -5z"/>
</g>
</svg>
