<svg xmlns="http://www.w3.org/2000/svg" width="452" height="482.844" viewBox="0 0 452 482.844">
  <defs>
    <style>
      .cls-1 {
        fill-rule: evenodd;
      }
    </style>
  </defs>
  <path id="bottle-vector" class="cls-1" d="M224,248l14,1c3.547,3.31,6.074,4.814,8,10,5.851,12.617-5.962,22.438-14,25-10.528,5.045-19.623-2.954-22-10C203.743,259.81,217.365,253.034,224,248Zm51,17c7.729-.115,8.972,1.153,13,4v1c-0.007,7.341-1.254,8.118-4,12l-5,3c-7.341-.007-8.118-1.254-12-4v-9Zm-76,37c31.336-.7,145.81-11.564,138,22-2.108,9.059-11.86,14.464-17,21V509l81,104,55,70c5.782,7.656,21.016,17.589,16,32-7.881,22.643-69.047,14-99,14H158c-33.244,0-76.561,5.236-106-2-4.2-5.515-7.374-8.369-8-18,28.978-50.775,75.347-98.415,111-145l42-52V348c-4.03-11.473-16.353-10.228-17-28C184.188,309.951,189.851,307.051,199,302Zm7,21,13,15V515L67,708v1H448l-3-3L298,518V341l16-18H206Zm36,44c39-2.188,38.164,42.129,11,50-19.242,5.575-37.038-11.525-31-31C224.984,376.374,234.518,372.287,242,367ZM95,442c5.1-.2,8.465-0.019,11,2l10,8q-1,7-2,14l67,61v2c-17.74,13.638-48.436,61.846-66,68-17.448-13.27-50.641-55.012-69-61-2.513,4.728-5.455,5.322-13,5L21,531l1-9Zm169,19,12,1,8,7q-0.5,6-1,12l-11,11-12-1-8-7q0.5-6,1-12ZM97,486L67,518l3,4,18,15,19-4-8-3q1-5,2-10l5-3,9,2c-0.077,8.939-2.187,8.541-6,13l32-7-6-7Zm0,8c7.729-.115,8.972,1.153,13,4v1c-0.007,7.341-1.254,8.118-4,12l-5,3c-7.341-.007-8.118-1.254-12-4v-9Zm139,33c8.221-.486,12.206-0.038,15,5,2.037,2.554,2.164,5.89,2,11l-10,10c-8.221.486-12.206,0.038-15-5-2.037-2.554-2.164-5.89-2-11Zm42,9,14,1c3.547,3.31,6.074,4.814,8,10,5.851,12.617-5.962,22.438-14,25-10.528,5.045-19.623-2.954-22-10C257.743,547.81,271.365,541.034,278,536Zm-89,46c26.463-.22,129.661-5.274,144,3l84,107v1c-66.148,5.327-150.14,2-223,2l-94,1Z" transform="translate(-21 -248)"/>
</svg>
