<svg xmlns="http://www.w3.org/2000/svg" width="442" height="460.594" viewBox="0 0 442 460.594">
  <defs>
    <style>
      .cls-1 {
        fill-rule: evenodd;
      }
    </style>
  </defs>
  <path id="metal-vector" class="cls-1" d="M376,475l90,1,4,5v58L277,731,32,730l-4-5V667l93-94V527c-16.346.238-80.278,4.253-89-2l-4-3V463L220,272H396c21.006,0,57.759-5.152,73,3q0.5,30,1,60l-94,95v45ZM227,289L59,458H271L439,289H227Zm224,14L283,472v24L452,327Q451.5,315,451,303ZM190,527V649L359,480V447l-81,80H190ZM46,476l-1,33,90,1,4,5q-0.5,80.491-1,161l-5,4H45l1,33H265q0.5-16.5,1-33l-90-1-4-5q0.5-80.491,1-161l5-4h88q-0.5-16.5-1-33H46Zm325,17L203,662h68L439,493H371Zm80,13L283,675v25L452,531Q451.5,518.5,451,506ZM121,662V600L59,662h62Z" transform="translate(-28 -270.406)"/>
</svg>
