<svg xmlns="http://www.w3.org/2000/svg" width="370.563" height="476.844" viewBox="0 0 370.563 476.844">
  <defs>
    <style>
      .cls-1 {
        fill-rule: evenodd;
      }
    </style>
  </defs>
  <path id="fuel" class="cls-1" d="M206,12l143,2c19.94,2.983,42.685-5.8,56,5,23.14,18.777,2.128,77.086,7,110q0.5,141.986,1,284c2.57,7.756,12.856,9.747,17,16,4.567,6.893,8.661,44.958,2,54-6.563,8.909-49.356,5-66,5l-198-1-6-6c-0.255-17.682-4.244-45.38,6-55,4.8-4.5,12.2-3.281,16-9q0.5-77.992,1-156c0-18.737,7.057-44.469-13-45q-0.5,1-1,2c-11.487,47.644,13.087,122.465-8,164-14.227,28.023-63.772,39.135-86,11-17.1-21.651-11.457-65.037-10-98,2.439-55.194-6.482-148.334,8-190,4.766-13.712,18.407-24.573,28-34,10.492-10.31,41.3-40.331,57-33q0.5,4,1,8c-11,8.163-55.065,53.323-51,72,2.619,12.032,10.228,20.08,11,36-9.42,6.343-9.182,12.053-24,15v46c-4.134,10.518-8.466,124.666-5,140,2.481,10.976,7.752,22.659,18,26,32.77,12.46,30-34.355,30-61,0-41.277-10.385-118.093,17-133l27-5q0.5-74.493,1-149C188.263,22.773,200.973,20.316,206,12Zm18,44-9,9c-4.521,14.626-6.779,87.316,3,95,7.94,6.239,27.113,4,41,4,28.041,0,108.034,4.84,124-7,5.884-18.456,4.4-87.2-4-99-13.659-3.627-35.1-2-52-2H224Zm75,14c29.948,5.987,45.721,71.213,8,80-27.515,6.41-45.494-22.713-37-46C275.56,88.756,292.066,83.33,299,70ZM93,124l-4,3c-1.354,9.171-1.822,16.88,0,26l5,4,15-5v-6C106.169,135.7,106.282,124.494,93,124Z" transform="translate(-64.938 -12)"/>
</svg>
